<svg xmlns="http://www.w3.org/2000/svg" viewBox="0 0 512 512" fill="none">
  <rect width="512" height="512" rx="96" fill="#FFF8F1"/>
  <path d="M256 60c-18 54-60 92-60 147 0 44 29 77 60 96 31-19 60-52 60-96 0-55-42-93-60-147Z" fill="#111111"/>
  <path d="M256 228c-8 22-27 39-27 61 0 19 13 33 27 41 14-8 27-22 27-41 0-22-19-39-27-61Z" fill="#FFF8F1"/>
  <path d="M106 206c-27 16-48 44-60 81 39-22 89-27 120-19-14-24-34-46-60-62Z" fill="#111111"/>
  <path d="M406 206c-26 16-46 38-60 62 31-8 81-3 120 19-12-37-33-65-60-81Z" fill="#111111"/>
  <path d="M60 287c-22 11-40 28-52 50 51-16 111-7 147 12-16-23-48-48-95-62Z" fill="#111111"/>
  <path d="M452 287c-47 14-79 39-95 62 36-19 96-28 147-12-12-22-30-39-52-50Z" fill="#111111"/>
  <path d="M146 194c-14 10-23 22-29 39 38 7 84 5 139-11-37-7-76-16-110-28Z" fill="#111111"/>
  <path d="M366 194c-34 12-73 21-110 28 55 16 101 18 139 11-6-17-15-29-29-39Z" fill="#111111"/>
  <path d="M256 236c-42 47-109 73-170 73 20 92 92 143 170 143s150-51 170-143c-61 0-128-26-170-73Z" fill="#111111"/>
  <path d="M100 272c34-24 97-20 156-4 59-16 122-20 156 4-37-50-103-58-156-37-53-21-119-13-156 37Z" stroke="#FFF8F1" stroke-width="8" stroke-linecap="round" stroke-linejoin="round"/>
  <path d="M154 286c34-18 74-16 102 4-28 18-68 20-102-4Z" fill="#111111"/>
  <path d="M358 286c-34-18-74-16-102 4 28 18 68 20 102-4Z" fill="#111111"/>
  <path d="M256 236c19 27 42 49 68 66-30-6-53-2-68 18-15-20-38-24-68-18 26-17 49-39 68-66Z" stroke="#FFF8F1" stroke-width="7" stroke-linecap="round" stroke-linejoin="round"/>
</svg>
